<svg width="24" height="18" viewBox="0 0 24 18" fill="none" xmlns="http://www.w3.org/2000/svg">
  <path
    d="M11.9448 11.7516C8.20728 11.7516 5.05374 12.3623 5.05374 14.7194C5.05374 17.0774 8.22765 17.6667 11.9448 17.6667C15.6822 17.6667 18.8358 17.0559 18.8358 14.6989C18.8358 12.3409 15.6619 11.7516 11.9448 11.7516Z"
    fill="#4BDE97" />
  <path opacity="0.4"
    d="M11.9448 9.50596C14.4755 9.50596 16.5048 7.465 16.5048 4.91965C16.5048 2.37333 14.4755 0.333344 11.9448 0.333344C9.41399 0.333344 7.3847 2.37333 7.3847 4.91965C7.3847 7.465 9.41399 9.50596 11.9448 9.50596Z"
    fill="#4BDE97" />
  <path opacity="0.4"
    d="M21.8453 5.98756C22.5001 3.41197 20.5804 1.09882 18.1359 1.09882C17.8702 1.09882 17.616 1.12808 17.3677 1.17784C17.3347 1.18564 17.2978 1.20223 17.2784 1.2315C17.2561 1.26857 17.2726 1.31833 17.2969 1.35052C18.0312 2.38661 18.4531 3.64807 18.4531 5.0022C18.4531 6.29975 18.0661 7.5095 17.3871 8.51339C17.3172 8.61681 17.3793 8.75632 17.5025 8.77778C17.6732 8.80803 17.8478 8.82364 18.0263 8.82851C19.8063 8.87534 21.4039 7.72316 21.8453 5.98756Z"
    fill="#4BDE97" />
  <path
    d="M23.7101 12.0517C23.3841 11.3531 22.5975 10.8741 21.4014 10.639C20.8369 10.5004 19.3091 10.3053 17.888 10.3317C17.8667 10.3346 17.855 10.3492 17.8531 10.359C17.8502 10.3726 17.856 10.3961 17.8841 10.4107C18.5408 10.7375 21.0794 12.159 20.7602 15.157C20.7467 15.2868 20.8505 15.3989 20.9795 15.3794C21.6042 15.2897 23.2115 14.9424 23.7101 13.8604C23.9856 13.2887 23.9856 12.6243 23.7101 12.0517Z"
    fill="#4BDE97" />
  <path opacity="0.4"
    d="M6.63187 1.17811C6.38452 1.12738 6.1294 1.09909 5.86361 1.09909C3.41917 1.09909 1.4995 3.41224 2.15523 5.98783C2.59562 7.72343 4.19324 8.87562 5.97323 8.82879C6.15171 8.82391 6.32728 8.80733 6.49704 8.77806C6.62023 8.75659 6.68231 8.61708 6.61247 8.51367C5.93346 7.5088 5.54642 6.30003 5.54642 5.00248C5.54642 3.64736 5.96935 2.38591 6.70365 1.3508C6.72693 1.3186 6.74439 1.26885 6.72111 1.23177C6.70171 1.20153 6.66582 1.18592 6.63187 1.17811Z"
    fill="#4BDE97" />
  <path
    d="M2.59836 10.6387C1.40233 10.8738 0.616612 11.3529 0.290685 12.0514C0.0142296 12.6241 0.0142296 13.2885 0.290685 13.8611C0.789275 14.9421 2.3966 15.2904 3.02129 15.3792C3.1503 15.3987 3.25312 15.2875 3.23954 15.1567C2.92041 12.1597 5.45895 10.7382 6.11662 10.4114C6.14378 10.3958 6.1496 10.3734 6.14669 10.3587C6.14475 10.349 6.13408 10.3343 6.11274 10.3324C4.69069 10.3051 3.16388 10.5002 2.59836 10.6387Z"
    fill="#4BDE97" />
</svg>